<svg xmlns="http://www.w3.org/2000/svg" viewBox="0 0 512 512" fill="none">
  <!-- OpenDB Butterfly Logo -->
  <rect width="512" height="512" rx="80" fill="#1a1a2e"/>
  <g transform="translate(256,270)">
    <!-- Left upper wing -->
    <path d="M-8,-10 C-30,-80 -120,-160 -180,-140 C-220,-125 -200,-60 -160,-30 C-120,0 -50,10 -8,0 Z" fill="url(#grad1)"/>
    <!-- Left lower wing -->
    <path d="M-8,10 C-30,60 -100,120 -140,110 C-170,100 -150,50 -120,30 C-90,10 -40,5 -8,0 Z" fill="url(#grad2)"/>
    <!-- Right upper wing -->
    <path d="M8,-10 C30,-80 120,-160 180,-140 C220,-125 200,-60 160,-30 C120,0 50,10 8,0 Z" fill="url(#grad1r)"/>
    <!-- Right lower wing -->
    <path d="M8,10 C30,60 100,120 140,110 C170,100 150,50 120,30 C90,10 40,5 8,0 Z" fill="url(#grad2r)"/>
    <!-- Body -->
    <ellipse cx="0" cy="0" rx="5" ry="40" fill="#e0f2fe"/>
    <!-- Antennae -->
    <path d="M-3,-38 C-15,-70 -30,-90 -40,-100" stroke="#e0f2fe" stroke-width="3" fill="none" stroke-linecap="round"/>
    <path d="M3,-38 C15,-70 30,-90 40,-100" stroke="#e0f2fe" stroke-width="3" fill="none" stroke-linecap="round"/>
    <circle cx="-42" cy="-102" r="4" fill="#e0f2fe"/>
    <circle cx="42" cy="-102" r="4" fill="#e0f2fe"/>
  </g>
  <defs>
    <linearGradient id="grad1" x1="0" y1="0" x2="-1" y2="-1">
      <stop offset="0%" stop-color="#06b6d4"/>
      <stop offset="100%" stop-color="#3b82f6"/>
    </linearGradient>
    <linearGradient id="grad1r" x1="0" y1="0" x2="1" y2="-1">
      <stop offset="0%" stop-color="#06b6d4"/>
      <stop offset="100%" stop-color="#3b82f6"/>
    </linearGradient>
    <linearGradient id="grad2" x1="0" y1="0" x2="-1" y2="1">
      <stop offset="0%" stop-color="#06b6d4"/>
      <stop offset="100%" stop-color="#14b8a6"/>
    </linearGradient>
    <linearGradient id="grad2r" x1="0" y1="0" x2="1" y2="1">
      <stop offset="0%" stop-color="#06b6d4"/>
      <stop offset="100%" stop-color="#14b8a6"/>
    </linearGradient>
  </defs>
</svg>
