<svg xmlns="http://www.w3.org/2000/svg" viewBox="0 0 512 512" fill="none">
  <!-- openDB Butterfly Logo - Minimalist -->
  <g transform="translate(256,256)">
    <!-- Left upper wing -->
    <path d="M-8,-10 C-30,-80 -120,-160 -180,-140 C-220,-125 -200,-60 -160,-30 C-120,0 -50,10 -8,0 Z" fill="#000"/>
    <!-- Left lower wing -->
    <path d="M-8,10 C-30,60 -100,120 -140,110 C-170,100 -150,50 -120,30 C-90,10 -40,5 -8,0 Z" fill="#000"/>
    <!-- Right upper wing -->
    <path d="M8,-10 C30,-80 120,-160 180,-140 C220,-125 200,-60 160,-30 C120,0 50,10 8,0 Z" fill="#000"/>
    <!-- Right lower wing -->
    <path d="M8,10 C30,60 100,120 140,110 C170,100 150,50 120,30 C90,10 40,5 8,0 Z" fill="#000"/>
    <!-- Body -->
    <ellipse cx="0" cy="0" rx="5" ry="40" fill="#000"/>
    <!-- Antennae -->
    <path d="M-3,-38 C-15,-70 -30,-90 -40,-100" stroke="#000" stroke-width="3" fill="none" stroke-linecap="round"/>
    <path d="M3,-38 C15,-70 30,-90 40,-100" stroke="#000" stroke-width="3" fill="none" stroke-linecap="round"/>
    <circle cx="-42" cy="-102" r="4" fill="#000"/>
    <circle cx="42" cy="-102" r="4" fill="#000"/>
  </g>
</svg>
